<svg width="100" height="150" viewBox="0 0 100 150" fill="none" xmlns="http://www.w3.org/2000/svg">
<g id="MacBook Pro - 1">
<rect width="100" height="150" fill="white"/>
<path id="Vector 1" d="M39.7205 52.0698V129.624" stroke="black" stroke-width="3" stroke-linecap="round"/>
<path id="Vector 2" d="M46.0088 55.2139V130.672" stroke="black" stroke-width="3" stroke-linecap="round"/>
<path id="Vector 3" d="M39.7205 129.625H47.0567" stroke="black" stroke-width="3" stroke-linecap="round"/>
<path id="Vector 4" d="M39.7205 52.0698H46.0087" stroke="white" stroke-width="3" stroke-linecap="round"/>
<path id="Vector 5" d="M39.1439 53.1316C38.6243 50.4685 41.1226 49.8654 43.1903 49.8654C44.042 49.8654 44.9657 49.9481 45.64 50.5549C45.8824 50.7731 47.1194 51.6351 46.7831 52.1154C45.2508 54.3044 42.1342 54.3353 39.6339 53.9844C38.9298 53.8856 38.7513 53.902 38.273 53.2949C38.0657 53.0318 37.6108 52.0574 37.9463 51.8251C38.7242 51.2866 40.6433 50.9734 41.5936 51.0086C42.0484 51.0254 43.1134 51.2401 43.4625 51.5892C44.4889 52.6156 40.9056 53.0711 40.3687 52.6416C40.1025 52.4286 39.9733 51.6671 40.2236 51.4168C41.3168 50.3236 43.4462 50.682 44.8143 50.682C45.7989 50.682 46.1097 51.2651 45.9847 52.2334C45.8539 53.2474 45.4506 53.5553 44.4514 53.6124C42.4766 53.7253 38.4794 54.5391 38.3274 51.4985C38.28 50.5509 40.2162 50.682 40.7407 50.682C41.3905 50.682 46.1199 50.2643 45.64 51.4985C45.3351 52.2825 43.9707 52.7694 43.2811 53.1679C41.7841 54.0328 38.1546 53.8184 37.8465 51.6618C37.5905 49.8697 41.5406 49.1748 42.7095 49.058C43.9214 48.9368 44.7759 48.9624 45.9303 49.4571C47.1096 49.9626 47.9299 49.8909 48.4888 51.0086C48.7049 51.4409 48.4644 52.4718 48.1622 52.8412C47.5202 53.6258 47.5386 53.8838 46.4565 54.1477C44.4752 54.6309 42.4923 55.2546 40.3687 55.2546C38.9474 55.2546 37.3476 53.5163 37.3476 52.0701C37.3476 51.1512 37.1594 50.2124 37.7467 49.4571C38.3157 48.7256 39.1788 48.559 40.0693 48.559C41.5979 48.559 43.132 48.5953 44.6601 48.559C45.8295 48.5311 47.0085 48.1799 48.1622 48.5952C48.468 48.7054 48.9998 49.0911 49.142 49.3755C49.261 49.6136 49.6985 50.1195 49.4323 50.1195C49.3825 50.1195 48.7233 49.1591 48.6521 49.0852C48.1594 48.5735 47.819 48.1315 47.1369 47.8331C46.4906 47.5504 45.7845 47.5791 45.0956 47.5791C44.1689 47.5791 43.2188 47.3388 42.2921 47.2616C41.9551 47.2335 39.9666 47.0467 39.7972 47.3432C39.515 47.8371 39.0094 48.2848 38.8173 48.813C37.9736 51.1333 41.131 51.4053 42.1561 52.7233C42.8936 53.6716 42.7446 54.4817 43.0633 55.5177C43.6325 57.3674 43.3566 59.3916 43.9615 61.2062C44.1293 61.7095 44.2065 62.3345 44.2065 62.8665C44.2065 63.1262 44.1426 63.4864 44.2881 63.7194C44.5658 64.1636 44.3698 62.6737 44.3698 62.1498C44.3698 60.5819 44.3538 58.8874 43.5532 57.4864C43.4803 57.3589 43.0697 56.167 42.9363 56.2707C42.4805 56.6252 42.2472 57.4168 42.1198 57.9582C41.8942 58.9169 42.285 59.9473 42.4464 60.8796C42.6441 62.0222 43.3448 62.9363 43.3899 64.1095C43.4439 65.5128 43.952 66.9463 44.0341 68.3827C44.1424 70.2783 44.2793 72.1461 44.0432 74.035C43.8407 75.6549 43.8203 77.2829 43.1631 78.8163C42.8515 79.5433 43.108 77.6855 43.1631 77.4281C43.6622 75.0993 43.8799 72.9467 43.8799 70.5511C43.8799 67.9029 44.1954 64.5825 42.6641 62.2405C42.5303 62.0358 42.3929 61.8432 42.2831 61.6236C42.2065 61.4705 42.2468 62.7312 42.2468 62.8937C42.2468 64.7682 42.103 66.7231 42.2831 68.5914C42.4205 70.0168 42.2468 71.341 42.2468 72.7648C42.2468 75.9455 41.5936 79.0935 41.5936 82.282C41.5936 83.4489 41.9164 82.8087 42.3284 82.028C42.8929 80.9585 43.6236 79.6619 43.8617 78.4715C44.0422 77.5691 43.8633 80.2271 43.8073 80.531C43.6704 81.2742 43.5532 82.0085 43.5532 82.7629C43.5532 83.3878 43.1254 83.9872 43.0724 84.6228C43.0053 85.4284 42.9476 86.2348 42.8184 87.0361C42.6788 87.9015 42.8558 88.7288 42.5008 89.5401C42.3584 89.8657 42.1026 90.5312 42.0835 90.8557C41.9983 92.3028 42.4101 87.9686 42.4101 86.5189C42.4101 85.8369 42.3555 86.782 42.7367 86.9726C43.2275 87.218 43.3899 87.6369 43.3899 88.1702C43.3899 88.9147 43.2266 89.7007 43.2266 90.3657C43.2266 90.8893 43.4303 91.4826 43.3536 91.9807C43.2415 92.7094 42.7284 93.2794 42.5734 93.9767C42.4595 94.4893 42.2468 94.9675 42.2468 95.4918C42.2468 96.095 42.4516 94.3024 42.5825 93.7136C42.7319 93.0411 42.7257 91.8427 42.1651 91.2821C41.4975 90.6145 42.6134 93.1166 42.8093 94.0402C42.9168 94.5471 43.0633 95.1555 43.0633 95.6732C43.0633 96.9333 43.1636 98.0154 43.5532 99.1844" stroke="black" stroke-width="3" stroke-linecap="round"/>
<path id="Vector 6" d="M40.6138 85.3033C40.8875 84.0868 41.1851 84.2461 42.0835 84.895C42.4749 85.1777 42.9001 85.6098 42.9001 86.1198" stroke="white" stroke-width="3" stroke-linecap="round"/>
<path id="Vector 7" d="M42.5736 108.493C42.3411 107.273 42.5736 106.33 42.5736 105.127C42.5736 102.784 41.9528 100.725 41.6028 98.4496C41.4129 97.2154 41.2671 95.8628 41.2671 94.6118C41.2671 93.512 41.9903 92.1534 41.6754 91.0826C41.2564 89.6582 40.9405 88.3416 40.9405 86.8457C40.9405 86.0563 41.2776 85.2282 41.0947 84.4051C40.8677 83.3834 40.3147 84.2429 40.4596 84.895C40.5594 85.3439 40.4914 86.2912 40.877 86.1198C41.349 85.9101 41.9746 85.4539 42.0746 84.9041C42.0994 84.7676 42.0056 83.9914 42.2469 84.3598C42.8172 85.2301 43.5534 86.8928 43.5534 87.9525C43.5534 89.7986 44.2066 91.5112 44.2066 93.3054C44.2066 94.2373 44.423 95.7307 44.3699 93.7953C44.3359 92.5523 43.88 91.3631 43.88 90.1118C43.88 89.0231 43.88 87.9344 43.88 86.8457C43.88 86.0092 44.0433 83.5051 44.0433 84.3416C44.0433 85.5381 43.63 86.9772 43.8891 88.143C43.9565 88.4463 44.2066 88.585 44.2066 88.9687C44.2066 89.801 44.0003 90.6089 43.753 91.4001C43.2512 93.0061 43.2672 94.5755 43.1451 96.2359C42.8999 99.5711 42.656 103.044 43.1451 106.37C43.3631 107.852 43.4782 109.879 42.9818 111.269C42.6506 112.197 42.9002 113.5 42.9002 114.463C42.9002 116.029 42.5736 117.589 42.5736 119.162C42.5736 119.901 42.477 120.607 42.374 121.34C42.284 121.98 42.379 122.801 42.1653 123.399C41.7001 124.702 41.3364 127.11 43.3084 127.11C44.6339 127.11 44.3699 124.65 44.3699 123.644C44.3699 121.43 44.6071 119.043 44.2429 116.858C44.0958 115.975 44.1272 114.989 44.0524 114.091C44.0073 113.549 44.0991 112.491 43.7167 112.086C43.4005 111.751 42.8486 111.323 42.7459 110.861C42.7076 110.688 42.5187 110.008 42.2832 110.453C41.5925 111.757 42.4258 110.035 41.884 110.035C41.4044 110.035 41.2528 111.894 41.2762 112.267C41.324 113.033 41.58 113.815 41.7207 114.572C41.872 115.385 41.9029 116.625 41.6028 117.375C41.1315 118.553 42.6187 115.038 42.9365 113.81C43.5229 111.542 43.8484 109.257 44.2883 106.96C44.4805 105.956 45.0307 104.971 45.1502 103.975C45.2329 103.285 45.1865 102.573 45.1865 101.879C45.1865 101.045 44.5333 100.225 44.5333 99.4294C44.5333 98.2241 44.5333 100.301 44.5333 100.654C44.5333 106.766 43.9879 112.788 43.7167 118.89C43.5859 121.834 43.8763 124.963 43.2359 127.845C43.1121 128.402 43.2033 128.921 42.4919 129.079C41.438 129.313 40.5576 130.479 39.4707 130.54C38.6012 130.588 38.6542 131.983 38.6542 132.663C38.6542 133.855 41.2052 134.299 42.0655 134.659C43.3739 135.206 44.6387 135.695 46.0302 136.001C46.5556 136.117 48.0088 136.565 48.4889 136.128C49.6935 135.033 50.3109 133.469 49.7591 131.846C48.8848 129.274 44.5322 129.314 42.6461 130.63C41.8307 131.2 40.8836 132.838 41.1129 133.869C41.1601 134.082 43.9671 134.423 44.2429 134.459C45.4759 134.619 46.5386 134.976 47.2369 133.878C47.6921 133.163 47.8399 132.731 46.8921 132.427C46.5481 132.316 44.181 131.386 43.8709 131.955C43.696 132.276 43.2311 133.2 43.7893 133.352C44.4163 133.523 45.1695 133.577 45.7762 133.289C46.6276 132.883 47.1147 131.412 45.8942 131.156C44.8483 130.937 43.4129 130.552 42.4375 131.202C42.1398 131.4 41.9998 131.694 41.7752 131.955C41.3738 132.421 40.8368 132.643 40.3235 132.953C40.0603 133.112 39.6995 133.658 40.0514 133.96C40.9123 134.698 42.2081 135.14 43.2449 135.548C43.8899 135.801 45.3778 136.83 45.8306 135.811C46.2559 134.854 45.7395 133.547 44.7691 133.207C43.8383 132.881 42.0278 132.06 41.0312 132.345C40.7559 132.424 40.6139 133 40.6139 133.234C40.6139 134.069 41.1925 133.986 41.9022 134.259C42.3817 134.444 44.5162 135.197 44.9415 134.677C45.9356 133.462 42.5214 131.994 41.8115 131.683C41.5513 131.568 38.0009 129.841 38.0009 131.519C38.0009 131.802 37.9488 132.142 38.01 132.418C38.0951 132.801 38.4695 133.074 38.4909 133.479C38.6082 135.709 42.0295 137.07 43.8437 137.235C44.6211 137.306 46.2725 137.975 46.9466 137.362C47.5301 136.832 47.4728 136.222 47.4728 135.602" stroke="black" stroke-width="3" stroke-linecap="round"/>
<path id="Vector 8" d="M35.7146 124.66C36.6728 125.409 37.4087 125.477 38.6542 125.477C40.123 125.477 41.624 126.13 43.1542 126.13C44.7236 126.13 46.5021 126.299 47.9627 125.604C48.6038 125.299 49.2256 125.007 49.8317 124.66C50.1489 124.479 50.2165 123.975 50.4486 123.717C51.4992 122.549 52.3232 120.781 51.1472 119.344C50.1216 118.09 48.631 117.03 47.2278 116.25C43.9703 114.44 40.1242 113.882 36.3679 113.882C35.0893 113.882 32.01 113.695 33.1017 115.606C33.5297 116.355 34.8519 116.658 35.6511 116.658C37.2483 116.658 38.7869 116.822 40.3689 116.822C42.1133 116.822 43.6254 117.038 45.3498 116.495C46.9778 115.982 48.6725 114.615 49.8861 113.428C50.8148 112.52 52.1955 111.244 52.499 109.908C52.8241 108.478 53.0825 107.78 51.7914 106.896C50.2731 105.857 48.5819 105.275 46.9284 104.492C45.4539 103.793 43.5186 103.156 41.9022 102.94C40.5523 102.76 38.6322 102.483 37.266 102.786C36.1122 103.043 35.1461 104.533 34.5624 105.408C33.9936 106.261 33.0889 107.239 33.4646 108.366C34.109 110.299 38.0969 109.659 39.7066 109.636C41.6642 109.608 43.4907 108.578 44.9869 107.422C46.6523 106.135 48.4177 104.971 50.0857 103.684C52.3678 101.924 53.7372 99.2441 54.7581 96.6349C54.9538 96.135 55.6121 95.5388 55.4386 94.9747C55.1377 93.9967 53.5947 93.799 52.7712 93.6319C51.9173 93.4586 51.0311 93.4055 50.1855 93.2146C49.5784 93.0775 49.0309 92.8245 48.3982 92.8154C47.3251 92.7998 46.2507 92.8154 45.1774 92.8154C44.1142 92.8154 43.0075 93.0471 41.9748 93.3053C41.2341 93.4904 40.2919 93.6824 39.6249 94.0492C37.8216 95.0411 36.1723 95.8646 34.5715 97.1884C34.1673 97.5226 32.446 98.397 32.8749 99.1118C33.563 100.259 35.4174 100.574 36.6219 100.817C38.4242 101.182 40.3985 101.013 42.2288 100.981C44.0547 100.949 45.9853 100.432 47.2097 99.0483C48.3111 97.8032 49.6158 96.8178 50.6664 95.5009C51.7785 94.1067 52.9257 92.7814 53.8509 91.2549C54.5032 90.1785 54.7773 89.0129 55.2208 87.8435C55.5566 86.9584 55.9584 85.9894 55.0394 85.4665C53.3052 84.4798 51.2664 84.0544 49.3508 83.5885C47.9546 83.2489 45.8958 83.0648 44.4607 83.3798C42.3791 83.8367 40.3661 83.9882 38.3638 84.777C36.9903 85.3181 36.0383 86.31 34.9253 87.2266C34.2463 87.7858 33.371 88.0642 32.7388 88.6964C31.5784 89.8567 36.0003 91.2206 36.6128 91.3456C40.031 92.0432 43.8944 91.1412 46.4748 88.6601C49.0284 86.2047 52.3237 84.5437 54.0686 81.3294C54.7107 80.1466 54.349 78.7405 54.5313 77.4644C54.8025 75.5658 53.9906 74.9054 52.1906 74.1983C50.5845 73.5673 48.8367 73.0551 47.1008 73.0551C45.0336 73.0551 43.0338 72.7761 40.9768 72.6015C39.0806 72.4405 36.789 72.6771 35.1884 73.7809C34.5332 74.2328 32.8934 76.0874 33.9364 76.8475C35.6432 78.0915 37.5523 77.9345 39.4072 78.6983C40.6594 79.2139 42.2169 79.2709 43.5534 79.3878C47.4068 79.725 50.0116 77.3822 52.7894 75.16C53.9795 74.2079 55.2666 72.9435 56.0555 71.6216C56.6056 70.6999 57.6805 69.133 57.1714 68.0017C56.5271 66.5697 53.643 65.9898 52.3539 65.6155C51.0971 65.2507 49.7965 64.9258 48.5161 64.6448C45.0433 63.8824 41.6298 63.4934 38.1007 63.2657C36.2713 63.1477 34.7753 63.6179 33.9182 65.3797C33.645 65.9413 33.4283 66.7808 33.4283 67.4029C33.4283 68.3863 35.5426 68.8337 36.1864 69.0632C39.5675 70.2683 42.8216 70.3156 46.3478 70.2789C48.6292 70.2551 51.2606 69.1937 52.245 66.922C52.97 65.2489 52.5353 62.6693 52.5353 60.8705C52.5353 59.3055 53.0409 57.7831 51.1563 57.5318C49.7045 57.3382 48.2242 56.6222 46.7833 56.307C44.8718 55.8889 42.8577 55.6021 40.9314 55.427C39.2806 55.2769 38.1316 56.4759 36.7308 57.0147C35.547 57.47 34.0786 58.0301 33.2287 58.9744C32.4403 59.8504 39.568 61.2663 39.7247 61.297C40.9758 61.5417 42.7339 61.7067 43.88 61.1337" stroke="black" stroke-width="2" stroke-linecap="round"/>
<path id="Vector 9" d="M36.0413 125.314C35.4042 124.85 34.7279 124.647 34.4082 124.007" stroke="white" stroke-width="2" stroke-linecap="round"/>
<path id="Vector 10" d="M36.3677 125.15C34.863 124.812 34.1335 122.46 35.7961 121.721C37.2585 121.071 38.807 120.904 40.4504 120.904" stroke="black" stroke-width="2" stroke-linecap="round"/>
</g>
</svg>
